<svg id="visual" viewBox="0 0 2400 300" width="2400" height="300" xmlns="http://www.w3.org/2000/svg"
  xmlns:xlink="http://www.w3.org/1999/xlink" version="1.1">
  <path
    d="M0 72L30.8 84.5C61.7 97 123.3 122 184.8 136.2C246.3 150.3 307.7 153.7 369.2 158.3C430.7 163 492.3 169 553.8 164.3C615.3 159.7 676.7 144.3 738.2 130.7C799.7 117 861.3 105 923 111.3C984.7 117.7 1046.3 142.3 1107.8 138.3C1169.3 134.3 1230.7 101.7 1292.2 96.8C1353.7 92 1415.3 115 1477 127C1538.7 139 1600.3 140 1661.8 140.2C1723.3 140.3 1784.7 139.7 1846.2 143.3C1907.7 147 1969.3 155 2030.8 156.5C2092.3 158 2153.7 153 2215.2 167.8C2276.7 182.7 2338.3 217.3 2369.2 234.7L2400 252L2400 0L2369.2 0C2338.3 0 2276.7 0 2215.2 0C2153.7 0 2092.3 0 2030.8 0C1969.3 0 1907.7 0 1846.2 0C1784.7 0 1723.3 0 1661.8 0C1600.3 0 1538.7 0 1477 0C1415.3 0 1353.7 0 1292.2 0C1230.7 0 1169.3 0 1107.8 0C1046.3 0 984.7 0 923 0C861.3 0 799.7 0 738.2 0C676.7 0 615.3 0 553.8 0C492.3 0 430.7 0 369.2 0C307.7 0 246.3 0 184.8 0C123.3 0 61.7 0 30.8 0L0 0Z"
    fill="#a5b4fc" stroke-linecap="round" stroke-linejoin="miter"></path>
</svg>